<svg width="73" height="73" viewBox="0 0 73 73" fill="none" xmlns="http://www.w3.org/2000/svg">
<path d="M68.9758 0.739941H3.99579C2.3968 0.681097 0.673133 2.19441 0.704022 4.03157V27.1467C0.704022 27.7256 1.17324 28.1949 1.75231 28.1949C2.33139 28.1949 2.8006 27.7256 2.8006 27.1467V4.11082L35.4374 32.9062V59.8537C35.4374 60.4327 35.9066 60.902 36.4857 60.902C37.0647 60.902 37.534 60.4327 37.534 59.8537V33.4815H70.1707V69.0116C70.1707 69.6706 69.6347 70.2067 68.9757 70.2067H37.534V64.8218C37.534 64.2429 37.0647 63.7735 36.4857 63.7735C35.9066 63.7735 35.4374 64.2429 35.4374 64.8218V70.2067H3.99565C3.33663 70.2067 2.8006 69.6706 2.8006 69.0116V32.4333C2.8006 31.8543 2.33139 31.385 1.75231 31.385C1.17324 31.385 0.704022 31.8543 0.704022 32.4333V69.0116C0.704022 70.8267 2.18057 72.3032 3.99565 72.3032H68.9757C70.7906 72.3032 72.2673 70.8267 72.2673 69.0116V4.03157C72.2673 2.21649 70.7908 0.739941 68.9758 0.739941ZM70.1707 4.03157V28.9736L62.1589 16.9658C61.8374 16.4841 61.1865 16.3543 60.7051 16.6756C60.2236 16.997 60.0936 17.6479 60.4151 18.1294L62.5111 21.2709H51.8163L45.1522 13.17H57.1058L57.7008 14.0618C58.0223 14.5434 58.6732 14.6733 59.1547 14.3519C59.6362 14.0306 59.7662 13.3797 59.4448 12.8982L52.7314 2.83638H68.9755C69.6347 2.83652 70.1707 3.37255 70.1707 4.03157ZM48.5045 31.385L40.6633 23.3675H50.8261L57.4216 31.385H48.5045ZM38.6129 21.2709L30.69 13.17H42.4373L49.1014 21.2709H38.6129ZM16.2373 13.1702H27.7573L35.68 21.2711H25.4189L16.2373 13.1702ZM33.9366 2.83652L40.7127 11.0736H28.6396L20.5837 2.83652H33.9366ZM55.707 11.0736H43.4274L36.6514 2.83652H50.211L55.707 11.0736ZM17.651 2.83652L25.7069 11.0736H13.8612L4.52525 2.83652H17.651ZM36.8821 31.385L27.7951 23.3675H37.7306L45.5718 31.385H36.8821ZM60.1364 31.385L53.5409 23.3675H63.9099L69.2594 31.385H60.1364Z" fill="white"/>
</svg>
