<svg width="73" height="72" viewBox="0 0 73 72" fill="none" xmlns="http://www.w3.org/2000/svg">
<path d="M68.9753 0.327832H3.99531C2.39631 0.268988 0.672645 1.7823 0.703534 3.61946V26.7345C0.703534 27.3135 1.17275 27.7828 1.75182 27.7828C2.3309 27.7828 2.80011 27.3135 2.80011 26.7345V3.69871L35.4369 32.4941V59.4416C35.4369 60.0206 35.9061 60.4899 36.4852 60.4899C37.0643 60.4899 37.5335 60.0206 37.5335 59.4416V33.0694H70.1702V68.5995C70.1702 69.2585 69.6342 69.7945 68.9752 69.7945H37.5335V64.4097C37.5335 63.8307 37.0643 63.3614 36.4852 63.3614C35.9061 63.3614 35.4369 63.8307 35.4369 64.4097V69.7945H3.99517C3.33614 69.7945 2.80011 69.2585 2.80011 68.5995V32.0211C2.80011 31.4422 2.3309 30.9729 1.75182 30.9729C1.17275 30.9729 0.703534 31.4422 0.703534 32.0211V68.5995C0.703534 70.4146 2.18009 71.8911 3.99517 71.8911H68.9752C70.7901 71.8911 72.2668 70.4146 72.2668 68.5995V3.61946C72.2668 1.80438 70.7903 0.327832 68.9753 0.327832ZM70.1702 3.61946V28.5615L62.1584 16.5537C61.8369 16.072 61.186 15.9422 60.7046 16.2635C60.2231 16.5849 60.0931 17.2358 60.4146 17.7173L62.5106 20.8588H51.8158L45.1517 12.7579H57.1053L57.7003 13.6496C58.0218 14.1313 58.6727 14.2612 59.1542 13.9398C59.6358 13.6185 59.7658 12.9676 59.4443 12.486L52.7309 2.42427H68.9751C69.6342 2.42441 70.1702 2.96044 70.1702 3.61946ZM48.504 30.9729L40.6628 22.9554H50.8257L57.4211 30.9729H48.504ZM38.6124 20.8588L30.6895 12.7579H42.4368L49.1009 20.8588H38.6124ZM16.2368 12.758H27.7568L35.6795 20.8589H25.4184L16.2368 12.758ZM33.9362 2.42441L40.7122 10.6615H28.6391L20.5832 2.42441H33.9362ZM55.7065 10.6615H43.427L36.651 2.42441H50.2105L55.7065 10.6615ZM17.6505 2.42441L25.7064 10.6615H13.8607L4.52476 2.42441H17.6505ZM36.8816 30.9729L27.7946 22.9554H37.7301L45.5713 30.9729H36.8816ZM60.1359 30.9729L53.5404 22.9554H63.9094L69.2589 30.9729H60.1359Z" fill="white"/>
</svg>
