<svg width="73" height="73" viewBox="0 0 73 73" fill="none" xmlns="http://www.w3.org/2000/svg">
<path d="M70.9975 0.738525H1.66946C1.3729 0.738525 1.08848 0.856335 0.878781 1.06604C0.669079 1.27574 0.55127 1.56016 0.55127 1.85672L0.55127 71.1848C0.55127 71.4813 0.669079 71.7658 0.878781 71.9755C1.08848 72.1852 1.3729 72.303 1.66946 72.303H70.9975C71.2941 72.303 71.5785 72.1852 71.7882 71.9755C71.9979 71.7658 72.1157 71.4813 72.1157 71.1848V1.85672C72.1157 1.56016 71.9979 1.27574 71.7882 1.06604C71.5785 0.856335 71.2941 0.738525 70.9975 0.738525ZM69.8793 70.0666H2.78766V2.97491H69.8793V70.0666Z" fill="white"/>
<path d="M7.26044 35.4026H34.0971C34.3937 35.4026 34.6781 35.2847 34.8878 35.075C35.0975 34.8653 35.2153 34.5809 35.2153 34.2844V7.44769C35.2153 7.15113 35.0975 6.86671 34.8878 6.65701C34.6781 6.44731 34.3937 6.3295 34.0971 6.3295H7.26044C6.96387 6.3295 6.67946 6.44731 6.46975 6.65701C6.26005 6.86671 6.14224 7.15113 6.14224 7.44769V34.2844C6.14224 34.5809 6.26005 34.8653 6.46975 35.075C6.67946 35.2847 6.96387 35.4026 7.26044 35.4026ZM16.6689 33.1662L27.0603 22.7748L25.4792 21.1937L13.5067 33.1662H9.95976L32.9789 10.147V33.1662H16.6689ZM24.6886 8.56589L13.179 20.0755L14.7602 21.6566L27.8509 8.56589H31.3978L8.37863 31.585V8.56589H24.6886Z" fill="white"/>
<path d="M38.5699 35.4026H65.4066C65.7031 35.4026 65.9875 35.2847 66.1972 35.075C66.4069 34.8653 66.5247 34.5809 66.5247 34.2844V7.44769C66.5247 7.15113 66.4069 6.86671 66.1972 6.65701C65.9875 6.44731 65.7031 6.3295 65.4066 6.3295H38.5699C38.2733 6.3295 37.9889 6.44731 37.7792 6.65701C37.5695 6.86671 37.4517 7.15113 37.4517 7.44769V34.2844C37.4517 34.5809 37.5695 34.8653 37.7792 35.075C37.9889 35.2847 38.2733 35.4026 38.5699 35.4026ZM39.6881 8.56589H64.2884V33.1662H39.6881V8.56589Z" fill="white"/>
<path d="M7.26044 66.712H34.0971C34.3937 66.712 34.6781 66.5942 34.8878 66.3845C35.0975 66.1748 35.2153 65.8904 35.2153 65.5938V38.7571C35.2153 38.4606 35.0975 38.1762 34.8878 37.9665C34.6781 37.7568 34.3937 37.6389 34.0971 37.6389H7.26044C6.96387 37.6389 6.67946 37.7568 6.46975 37.9665C6.26005 38.1762 6.14224 38.4606 6.14224 38.7571V65.5938C6.14224 65.8904 6.26005 66.1748 6.46975 66.3845C6.67946 66.5942 6.96387 66.712 7.26044 66.712ZM8.37863 39.8753H32.9789V64.4756H8.37863V39.8753Z" fill="white"/>
<path d="M38.5699 66.712H65.4066C65.7031 66.712 65.9875 66.5942 66.1972 66.3845C66.4069 66.1748 66.5247 65.8904 66.5247 65.5938V38.7571C66.5247 38.4606 66.4069 38.1762 66.1972 37.9665C65.9875 37.7568 65.7031 37.6389 65.4066 37.6389H38.5699C38.2733 37.6389 37.9889 37.7568 37.7792 37.9665C37.5695 38.1762 37.4517 38.4606 37.4517 38.7571V65.5938C37.4517 65.8904 37.5695 66.1748 37.7792 66.3845C37.9889 66.5942 38.2733 66.712 38.5699 66.712ZM47.9784 64.4756L58.3698 54.0842L56.7886 52.5031L44.8161 64.4756H41.2692L64.2884 41.4565V64.4756H47.9784ZM55.9981 39.8753L44.4885 51.3849L46.0696 52.966L59.1603 39.8753H62.7072L39.6881 62.8945V39.8753H55.9981Z" fill="white"/>
</svg>
