<svg width="1054" height="243" viewBox="0 0 1054 243" fill="none" xmlns="http://www.w3.org/2000/svg">
<g opacity="0.03">
<path d="M41.6451 0.854004C18.6862 0.854004 0.0742188 19.4659 0.0742188 42.4248V201.104C0.0742188 219.361 10.2135 236.614 28.2106 240.456C33.5893 241.604 39.0433 238.928 44.6665 236.17C49.9083 233.598 55.2973 230.954 60.9096 231.268C65.7632 231.54 70.3145 234.219 74.8933 236.915C80.014 239.929 85.1692 242.964 90.8204 242.675C105.776 241.909 111.751 224.736 112.873 208.84V184.628C95.89 207.441 74.3441 210.736 65.9792 210.483C65.7258 203.892 65.4723 195.443 65.4723 191.979C98.6783 191.979 113.38 160.547 113.38 152.689V142.803C108.226 149.985 93.0003 164.349 73.3302 164.349C73.3302 160.006 73.2453 154.887 73.1737 150.575C73.1216 147.438 73.0767 144.729 73.0767 143.057C99.1852 143.057 113.887 120.75 113.887 108.837V103.26C109.831 108.668 97.563 119.483 80.9346 119.483C80.8378 116.578 80.7409 113.97 80.6582 111.741C80.5244 108.136 80.4276 105.527 80.4276 104.274C105.269 104.274 114.648 79.433 114.648 73.603V67.266C110.761 71.4906 100.047 79.94 88.2855 79.94C88.2855 72.437 87.9476 64.1397 87.7786 60.929C111.352 60.929 114.901 38.8761 114.901 34.3135H126.308C126.308 38.8761 129.856 60.929 153.43 60.929C153.261 64.1397 152.923 72.437 152.923 79.94C141.162 79.94 130.448 71.4906 126.561 67.266V73.603C126.561 79.433 135.94 104.274 160.781 104.274C160.781 105.527 160.684 108.136 160.55 111.741C160.468 113.97 160.371 116.578 160.274 119.483C143.646 119.483 131.377 108.668 127.322 103.26V108.837C127.322 120.75 142.023 143.057 168.132 143.057C168.132 144.729 168.087 147.438 168.035 150.575C167.963 154.887 167.879 160.006 167.879 164.349C148.208 164.349 132.983 149.985 127.829 142.803V152.689C127.829 160.547 142.53 191.979 175.736 191.979C175.736 195.443 175.483 203.892 175.229 210.483C166.865 210.736 145.319 207.441 128.335 184.628C128.335 192.739 128.589 200.211 128.589 208.962C131.394 241.893 143.737 242.675 151.656 242.675C156.979 242.675 161.431 239.876 166.585 237.02C172.061 233.987 177.652 230.889 183.087 231.015C187.7 231.121 192.196 233.521 196.703 235.927C202.131 238.825 207.573 241.731 213.252 240.647C233.783 236.728 241.895 220.015 241.895 201.104V42.4248C241.895 19.4659 223.283 0.854004 200.324 0.854004H41.6451Z" fill="white"/>
</g>
<g opacity="0.03">
<path d="M275.941 162.882L281.537 150.023C284.255 150.34 284.575 150.34 288.412 151.134C272.423 144.148 261.23 123.986 261.23 102.235C261.23 69.6892 286.334 43.4934 317.513 43.4934C348.692 43.4934 373.795 69.6892 373.795 102.394C373.795 133.511 349.811 160.183 321.83 160.183C319.911 160.183 318.632 160.183 316.554 159.866V160.66C335.581 168.122 347.253 171.456 361.324 173.678L356.207 190.666C341.177 188.602 331.743 185.268 313.835 175.901C296.887 167.328 286.973 163.994 275.941 162.882ZM317.513 62.0686C297.206 62.0686 281.697 79.2149 281.697 101.759C281.697 125.573 296.727 142.72 317.513 142.72C337.979 142.72 353.649 125.097 353.649 102.394C353.649 79.5324 337.979 62.0686 317.513 62.0686Z" fill="white"/>
<path d="M397.176 158.596H377.029L433.951 42.2234L487.995 158.596H467.049L457.935 138.592H406.45L397.176 158.596ZM413.805 122.557H450.9L432.512 80.6437L413.805 122.557Z" fill="white"/>
<path d="M572.108 158.596V107.475L529.257 46.1924H552.601L582.661 90.6457L613.36 46.1924H636.705L592.095 107.157V158.596H572.108Z" fill="white"/>
<path d="M647.094 158.596V42.2234L721.764 117.159V46.1924H741.431V162.882L666.761 87.788V158.596H647.094Z" fill="white"/>
<path d="M769.512 158.596V46.1924H796.854C838.906 46.1924 864.649 67.4665 864.649 102.235C864.649 123.192 854.896 140.021 836.668 150.181C825.795 156.214 814.602 158.596 796.854 158.596H769.512ZM789.179 140.656H799.413C827.554 140.656 844.343 126.367 844.343 102.394C844.343 78.4211 827.554 64.1325 799.413 64.1325H789.179V140.656Z" fill="white"/>
<path d="M902.356 158.596V107.475L859.505 46.1924H882.849L912.909 90.6457L943.609 46.1924H966.953L922.343 107.157V158.596H902.356Z" fill="white"/>
<path fill-rule="evenodd" clip-rule="evenodd" d="M499.224 79.5413V158.596H518.891V79.5413H499.224ZM518.891 66.2727V46.1924H499.224V66.2727H518.891Z" fill="white"/>
<path d="M980.414 141.283L993.133 127.958C999.796 137.498 1006.31 141.434 1016 141.434C1027.05 141.434 1034.17 134.923 1034.17 125.081C1034.17 114.634 1026.14 109.637 1009.18 109.637H1005.1V92.6782H1010.24C1023.87 92.6782 1031.9 87.0757 1031.9 77.6879C1031.9 69.36 1025.23 63.3033 1016.3 63.3033C1008.28 63.3033 1002.82 66.6344 995.102 76.1737L982.988 64.666C994.496 51.4927 1004.34 46.1932 1017.66 46.1932C1036.14 46.1932 1050.52 59.215 1050.52 76.0223C1050.52 86.4701 1045.83 93.7381 1035.53 99.1891C1047.64 104.792 1053.25 113.119 1053.25 125.233C1053.25 144.463 1037.35 158.545 1015.54 158.545C1000.7 158.545 990.711 153.548 980.414 141.283Z" fill="white"/>
<path d="M748.774 186.53H744.592V195.761H742.512V186.53H738.331L732.172 195.761H729.7L736.58 185.397L730.236 175.63H732.522L738.29 184.655H742.512V175.63H744.592V184.655H748.774L754.562 175.63H756.869L750.483 185.397L757.384 195.761H754.912L748.774 186.53Z" fill="white"/>
<path d="M762.224 175.63H764.325V192.32L777.198 175.63H779.114V195.761H777.033V179.112L764.14 195.761H762.224V175.63Z" fill="white"/>
<path d="M802.801 175.63V195.761H800.7V177.464H790.999L790.772 184.202C790.669 186.983 790.463 189.209 790.092 190.919C789.742 192.629 789.186 193.886 788.465 194.71C787.744 195.555 786.756 195.967 785.561 195.967C785.046 195.967 784.51 195.905 783.954 195.761L784.14 193.865C784.469 193.948 784.778 193.989 785.087 193.989C785.932 193.989 786.611 193.659 787.147 193C787.682 192.341 788.074 191.29 788.342 189.888C788.609 188.487 788.795 186.612 788.898 184.284L789.186 175.65H802.842L802.801 175.63Z" fill="white"/>
<path d="M814.439 194.587C812.811 193.68 811.555 192.464 810.649 190.919C809.722 189.373 809.269 187.622 809.269 185.685C809.269 183.748 809.722 181.997 810.649 180.451C811.576 178.906 812.832 177.67 814.439 176.784C816.066 175.898 817.858 175.444 819.856 175.444C821.854 175.444 823.625 175.898 825.232 176.784C826.838 177.67 828.095 178.885 829.001 180.451C829.928 182.017 830.381 183.769 830.381 185.706C830.381 187.643 829.907 189.394 829.001 190.96C828.074 192.526 826.818 193.742 825.232 194.628C823.625 195.514 821.833 195.967 819.856 195.967C817.878 195.967 816.066 195.514 814.439 194.628M824.161 192.979C825.458 192.258 826.447 191.249 827.168 189.992C827.889 188.714 828.259 187.292 828.259 185.726C828.259 184.16 827.889 182.738 827.168 181.461C826.447 180.183 825.417 179.194 824.161 178.473C822.863 177.752 821.442 177.402 819.856 177.402C818.27 177.402 816.828 177.752 815.53 178.473C814.233 179.194 813.223 180.204 812.482 181.461C811.74 182.738 811.39 184.16 811.39 185.726C811.39 187.292 811.761 188.714 812.482 189.992C813.223 191.269 814.253 192.258 815.53 192.979C816.828 193.701 818.27 194.051 819.856 194.051C821.442 194.051 822.884 193.701 824.161 192.979Z" fill="white"/>
<path d="M836.931 175.63H839.032V192.32L851.905 175.63H853.821V195.761H851.72V179.112L838.847 195.761H836.931V175.63ZM841.916 173.178C841.071 172.539 840.659 171.612 840.639 170.458H842.225C842.225 171.22 842.534 171.838 843.09 172.271C843.646 172.724 844.408 172.93 845.314 172.93C846.221 172.93 846.983 172.724 847.539 172.271C848.116 171.838 848.404 171.241 848.425 170.458H850.01C850.01 171.632 849.557 172.539 848.713 173.178C847.868 173.816 846.736 174.167 845.335 174.167C843.934 174.167 842.76 173.837 841.936 173.178" fill="white"/>
<path d="M877.714 186.53H873.1V195.761H871.02V175.63H873.1V184.655H877.714L884.511 175.63H886.818L879.321 185.417L887.23 195.761H884.8L877.714 186.53Z" fill="white"/>
<path d="M895.346 194.587C893.718 193.68 892.462 192.464 891.556 190.919C890.629 189.373 890.176 187.622 890.176 185.685C890.176 183.748 890.629 181.997 891.556 180.451C892.483 178.906 893.739 177.67 895.346 176.784C896.973 175.898 898.765 175.444 900.763 175.444C902.761 175.444 904.532 175.898 906.139 176.784C907.745 177.67 909.002 178.885 909.908 180.451C910.835 182.017 911.288 183.769 911.288 185.706C911.288 187.643 910.814 189.394 909.908 190.96C908.981 192.526 907.725 193.742 906.139 194.628C904.532 195.514 902.74 195.967 900.763 195.967C898.785 195.967 896.973 195.514 895.346 194.628M905.068 192.979C906.365 192.258 907.354 191.249 908.075 189.992C908.796 188.714 909.167 187.292 909.167 185.726C909.167 184.16 908.796 182.738 908.075 181.461C907.354 180.183 906.324 179.194 905.068 178.473C903.77 177.752 902.349 177.402 900.763 177.402C899.177 177.402 897.735 177.752 896.437 178.473C895.14 179.194 894.13 180.204 893.389 181.461C892.647 182.738 892.297 184.16 892.297 185.726C892.297 187.292 892.668 188.714 893.389 189.992C894.13 191.269 895.16 192.258 896.437 192.979C897.735 193.701 899.177 194.051 900.763 194.051C902.349 194.051 903.791 193.701 905.068 192.979Z" fill="white"/>
<path d="M938.724 175.63V195.761H936.685V179.668L928.775 193.206H927.766L919.877 179.751V195.761H917.818V175.63H919.589L928.322 190.569L936.973 175.63H938.724Z" fill="white"/>
<path d="M963.894 175.63V195.761H961.793V177.484H949.043V195.761H946.963V175.63H963.894Z" fill="white"/>
<path d="M987.561 175.63V195.761H985.46V177.464H975.758L975.532 184.202C975.429 186.983 975.223 189.209 974.852 190.919C974.502 192.629 973.946 193.886 973.225 194.71C972.504 195.555 971.515 195.967 970.321 195.967C969.806 195.967 969.27 195.905 968.714 195.761L968.899 193.865C969.229 193.948 969.538 193.989 969.847 193.989C970.691 193.989 971.371 193.659 971.906 193C972.442 192.341 972.833 191.29 973.101 189.888C973.369 188.487 973.554 186.612 973.657 184.284L973.946 175.65H987.602L987.561 175.63Z" fill="white"/>
<path d="M1010.03 193.927V195.761H995.779V175.63H1009.6V177.484H997.921V184.655H1008.34V186.448H997.921V193.927H1010.03Z" fill="white"/>
<path d="M1022.84 186.53H1018.25V195.761H1016.17V175.63H1018.25V184.655H1022.84L1029.66 175.63H1031.95L1024.49 185.417L1032.4 195.761H1029.95L1022.84 186.53Z" fill="white"/>
<path d="M1040.5 194.607C1038.89 193.721 1037.63 192.505 1036.73 190.939C1035.8 189.373 1035.35 187.622 1035.35 185.685C1035.35 183.748 1035.8 181.997 1036.73 180.431C1037.63 178.865 1038.91 177.649 1040.5 176.763C1042.1 175.877 1043.89 175.424 1045.89 175.424C1047.38 175.424 1048.78 175.671 1050.03 176.165C1051.31 176.66 1052.36 177.402 1053.25 178.35L1051.89 179.71C1050.32 178.123 1048.32 177.319 1045.93 177.319C1044.35 177.319 1042.91 177.69 1041.59 178.412C1040.27 179.133 1039.26 180.142 1038.54 181.399C1037.8 182.677 1037.43 184.078 1037.43 185.644C1037.43 187.21 1037.8 188.632 1038.54 189.888C1039.28 191.166 1040.31 192.135 1041.59 192.876C1042.91 193.598 1044.33 193.968 1045.93 193.968C1048.34 193.968 1050.34 193.165 1051.89 191.558L1053.25 192.917C1052.36 193.886 1051.29 194.607 1050.01 195.102C1048.74 195.617 1047.36 195.864 1045.85 195.864C1043.85 195.864 1042.06 195.431 1040.48 194.525L1040.5 194.607Z" fill="white"/>
<path d="M718.351 174.414H716.456V201.325H718.351V174.414Z" fill="white"/>
<path d="M394.785 177.464H387.72V195.74H385.598V177.464H378.534V175.609H394.785V177.464Z" fill="white"/>
<path d="M406.587 188.776V195.72H404.486V188.776L396.433 175.609H398.698L405.599 186.901L412.499 175.609H414.641L406.587 188.776ZM399.028 187.828H411.943V189.435H399.028V187.828Z" fill="white"/>
<path d="M432.664 177.464C434.106 178.7 434.847 180.389 434.847 182.512C434.847 184.634 434.126 186.344 432.664 187.56C431.222 188.776 429.203 189.373 426.629 189.373H421.232V195.72H419.09V175.588H426.629C429.203 175.588 431.201 176.186 432.664 177.422M431.14 186.18C432.19 185.314 432.726 184.078 432.726 182.471C432.726 180.863 432.19 179.586 431.14 178.7C430.089 177.834 428.565 177.381 426.567 177.381H421.212V187.457H426.567C428.565 187.457 430.089 187.024 431.14 186.138" fill="white"/>
<path d="M443.683 177.464V185.582H452.376V187.21H443.725V195.74H441.624V187.21H438.534V185.582H441.624V175.609H454.415V177.464H443.683Z" fill="white"/>
<path d="M473.715 184.408C474.971 185.479 475.589 187.045 475.589 189.126C475.589 191.207 474.93 192.938 473.591 194.072C472.252 195.184 470.337 195.761 467.824 195.761H459.832V175.63H461.933V182.821H468.256C470.625 182.821 472.438 183.377 473.694 184.428M471.984 192.835C472.952 192.011 473.426 190.795 473.426 189.188C473.426 186.097 471.531 184.572 467.721 184.572H461.892V194.092H467.721C469.575 194.092 470.996 193.68 471.964 192.856M479.029 175.65H481.13V195.782H479.029V175.65Z" fill="white"/>
<path d="M506.217 175.609V195.74H504.117V186.468H491.531V195.74H489.41V175.609H491.531V184.593H504.117V175.609H506.217Z" fill="white"/>
<path d="M530.42 188.776V195.74H528.319V188.776L520.286 175.609H522.551L529.431 186.921L536.352 175.609H538.473L530.42 188.776Z" fill="white"/>
<path d="M543.169 175.609H545.27V192.299L558.144 175.609H560.059V195.74H557.958V179.091L545.085 195.74H543.169V175.609ZM548.154 173.157C547.31 172.518 546.897 171.591 546.877 170.437H548.463C548.463 171.199 548.772 171.818 549.328 172.25C549.884 172.704 550.626 172.91 551.553 172.91C552.479 172.91 553.221 172.704 553.777 172.25C554.354 171.818 554.642 171.22 554.663 170.437H556.249C556.249 171.612 555.796 172.518 554.951 173.157C554.107 173.796 552.974 174.146 551.573 174.146C550.173 174.146 548.998 173.816 548.175 173.157" fill="white"/>
<path d="M583.932 186.509H579.318V195.74H577.258V175.609H579.318V184.655H583.932L590.75 175.609H593.036L585.559 185.397L593.469 195.74H591.017L583.932 186.509Z" fill="white"/>
<path d="M612.418 193.907V195.74H598.185V175.609H611.986V177.464H600.286V184.634H610.709V186.427H600.286V193.907H612.418Z" fill="white"/>
<path d="M643.232 175.609V195.74H618.556V175.609H620.657V193.907H629.864V175.609H631.965V193.907H641.152V175.609H643.232Z" fill="white"/>
<path d="M665.683 193.907V195.74H651.451V175.609H665.251V177.464H653.572V184.634H663.994V186.427H653.572V193.907H665.683Z" fill="white"/>
<path d="M688.67 175.609V195.74H686.549V186.468H673.964V195.74H671.842V175.609H673.964V184.593H686.549V175.609H688.67Z" fill="white"/>
<path d="M698.969 175.609H696.868V195.74H698.969V175.609Z" fill="white"/>
</g>
</svg>
