<svg width="211" height="43" viewBox="0 0 211 43" fill="none" xmlns="http://www.w3.org/2000/svg">
<path d="M4.59325 31.9084L6.07318 28.5076C6.79201 28.5916 6.87658 28.5916 7.89139 28.8015C3.663 26.9542 0.703125 21.6221 0.703125 15.8702C0.703125 7.26336 7.3417 0.335869 15.5871 0.335869C23.8324 0.335869 30.471 7.26335 30.471 15.9122C30.471 24.1412 24.1284 31.1946 16.7287 31.1946C16.2213 31.1946 15.8831 31.1946 15.3334 31.1107V31.3206C20.3652 33.2939 23.4519 34.1756 27.1729 34.7633L25.8198 39.2557C21.8451 38.7099 19.3503 37.8282 14.6145 35.3511C10.1324 33.0839 7.51084 32.2023 4.59325 31.9084ZM15.5871 5.24809C10.217 5.24809 6.11547 9.78244 6.11547 15.7443C6.11547 22.042 10.0902 26.5763 15.5871 26.5763C20.9994 26.5763 25.1432 21.916 25.1432 15.9122C25.1432 9.86641 20.9994 5.24809 15.5871 5.24809Z" fill="#162A2B"/>
<path d="M36.654 30.7748H31.3263L46.3793 0L60.6713 30.7748H55.1321L52.7219 25.4847H39.1065L36.654 30.7748ZM41.0516 21.2443H50.8614L45.9988 10.1603L41.0516 21.2443Z" fill="#162A2B"/>
<path d="M82.915 30.7748V17.2557L71.5829 1.04961H77.7563L85.7057 12.8053L93.8242 1.04961H99.9977L88.2004 17.1717V30.7748H82.915Z" fill="#162A2B"/>
<path d="M102.745 30.7748V0L122.492 19.8168V1.04961H127.693V31.9084L107.946 12.0496V30.7748H102.745Z" fill="#162A2B"/>
<path d="M135.119 30.7748V1.04961H142.349C153.47 1.04961 160.278 6.67557 160.278 15.8702C160.278 21.4122 157.698 25.8626 152.878 28.5496C150.003 30.145 147.043 30.7748 142.349 30.7748H135.119ZM140.32 26.0305H143.026C150.468 26.0305 154.908 22.2519 154.908 15.9122C154.908 9.57251 150.468 5.79389 143.026 5.79389H140.32V26.0305Z" fill="#162A2B"/>
<path d="M170.249 30.7748V17.2557L158.917 1.04961H165.091L173.04 12.8053L181.159 1.04961H187.332L175.535 17.1717V30.7748H170.249Z" fill="#162A2B"/>
<path fill-rule="evenodd" clip-rule="evenodd" d="M63.6408 9.86874V30.7748H68.8417V9.86874H63.6408ZM68.8417 6.35986V1.04961H63.6408V6.35986H68.8417Z" fill="#162A2B"/>
<path d="M190.892 26.1964L194.256 22.6727C196.017 25.1953 197.739 26.2364 200.302 26.2364C203.225 26.2364 205.107 24.5146 205.107 21.9119C205.107 19.1489 202.985 17.8276 198.5 17.8276H197.419V13.3428H198.78C202.384 13.3428 204.506 11.8612 204.506 9.37862C204.506 7.17629 202.744 5.5746 200.382 5.5746C198.26 5.5746 196.818 6.45552 194.776 8.97819L191.573 5.93497C194.616 2.45129 197.219 1.04981 200.742 1.04981C205.628 1.04981 209.432 4.49345 209.432 8.93815C209.432 11.7011 208.19 13.6231 205.467 15.0646C208.671 16.5462 210.152 18.7485 210.152 21.9519C210.152 27.0373 205.948 30.7612 200.182 30.7612C196.258 30.7612 193.615 29.4398 190.892 26.1964Z" fill="#162A2B"/>
<path d="M129.634 38.162H128.529V40.6032H127.979V38.162H126.873L125.244 40.6032H124.59L126.41 37.8623L124.732 35.2794H125.337L126.862 37.6661H127.979V35.2794H128.529V37.6661H129.634L131.165 35.2794H131.775L130.086 37.8623L131.911 40.6032H131.258L129.634 38.162Z" fill="#162A2B"/>
<path d="M133.191 35.2794H133.747V39.6932L137.151 35.2794H137.658V40.6032H137.108V36.2003L133.698 40.6032H133.191V35.2794Z" fill="#162A2B"/>
<path d="M143.922 35.2794V40.6032H143.366V35.7644H140.801L140.741 37.5462C140.714 38.2819 140.659 38.8703 140.561 39.3226C140.469 39.7749 140.321 40.1073 140.131 40.3253C139.94 40.5487 139.679 40.6577 139.363 40.6577C139.227 40.6577 139.085 40.6413 138.938 40.6032L138.987 40.1019C139.074 40.1237 139.156 40.1346 139.237 40.1346C139.461 40.1346 139.641 40.0474 139.782 39.873C139.924 39.6987 140.027 39.4207 140.098 39.0502C140.169 38.6796 140.218 38.1838 140.245 37.568L140.321 35.2849H143.933L143.922 35.2794Z" fill="#162A2B"/>
<path d="M146.999 40.2926C146.569 40.0528 146.237 39.7313 145.997 39.3226C145.752 38.9139 145.632 38.4508 145.632 37.9386C145.632 37.4264 145.752 36.9632 145.997 36.5545C146.242 36.1458 146.575 35.8189 146.999 35.5846C147.43 35.3503 147.904 35.2304 148.432 35.2304C148.96 35.2304 149.429 35.3503 149.854 35.5846C150.279 35.8189 150.611 36.1404 150.851 36.5545C151.096 36.9686 151.216 37.4318 151.216 37.944C151.216 38.4562 151.09 38.9194 150.851 39.3336C150.605 39.7477 150.273 40.0692 149.854 40.3035C149.429 40.5378 148.955 40.6577 148.432 40.6577C147.909 40.6577 147.43 40.5378 146.999 40.3035M149.57 39.8676C149.914 39.6768 150.175 39.4098 150.366 39.0774C150.556 38.7396 150.654 38.3636 150.654 37.9495C150.654 37.5353 150.556 37.1593 150.366 36.8215C150.175 36.4836 149.903 36.2221 149.57 36.0314C149.227 35.8407 148.852 35.748 148.432 35.748C148.013 35.748 147.631 35.8407 147.288 36.0314C146.945 36.2221 146.678 36.4891 146.482 36.8215C146.286 37.1593 146.193 37.5353 146.193 37.9495C146.193 38.3636 146.291 38.7396 146.482 39.0774C146.678 39.4153 146.95 39.6768 147.288 39.8676C147.631 40.0583 148.013 40.1509 148.432 40.1509C148.852 40.1509 149.233 40.0583 149.57 39.8676Z" fill="#162A2B"/>
<path d="M152.948 35.2794H153.503V39.6932L156.908 35.2794H157.414V40.6032H156.859V36.2003L153.454 40.6032H152.948V35.2794ZM154.266 34.631C154.043 34.462 153.934 34.2168 153.928 33.9117H154.348C154.348 34.1133 154.429 34.2768 154.576 34.3912C154.723 34.5111 154.925 34.5656 155.165 34.5656C155.404 34.5656 155.606 34.5111 155.753 34.3912C155.905 34.2768 155.982 34.1187 155.987 33.9117H156.407C156.407 34.2223 156.287 34.462 156.063 34.631C155.84 34.7999 155.54 34.8925 155.17 34.8925C154.8 34.8925 154.489 34.8053 154.271 34.631" fill="#162A2B"/>
<path d="M163.733 38.162H162.513V40.6032H161.963V35.2794H162.513V37.6661H163.733L165.53 35.2794H166.14L164.158 37.8677L166.249 40.6032H165.607L163.733 38.162Z" fill="#162A2B"/>
<path d="M168.395 40.2926C167.965 40.0528 167.633 39.7313 167.393 39.3226C167.148 38.9139 167.028 38.4508 167.028 37.9386C167.028 37.4264 167.148 36.9632 167.393 36.5545C167.638 36.1458 167.971 35.8189 168.395 35.5846C168.826 35.3503 169.3 35.2304 169.828 35.2304C170.356 35.2304 170.825 35.3503 171.25 35.5846C171.675 35.8189 172.007 36.1404 172.246 36.5545C172.492 36.9686 172.611 37.4318 172.611 37.944C172.611 38.4562 172.486 38.9194 172.246 39.3336C172.001 39.7477 171.669 40.0692 171.25 40.3035C170.825 40.5378 170.351 40.6577 169.828 40.6577C169.305 40.6577 168.826 40.5378 168.395 40.3035M170.966 39.8676C171.31 39.6768 171.571 39.4098 171.762 39.0774C171.952 38.7396 172.05 38.3636 172.05 37.9495C172.05 37.5353 171.952 37.1593 171.762 36.8215C171.571 36.4836 171.299 36.2221 170.966 36.0314C170.623 35.8407 170.247 35.748 169.828 35.748C169.409 35.748 169.027 35.8407 168.684 36.0314C168.341 36.2221 168.074 36.4891 167.878 36.8215C167.682 37.1593 167.589 37.5353 167.589 37.9495C167.589 38.3636 167.687 38.7396 167.878 39.0774C168.074 39.4153 168.346 39.6768 168.684 39.8676C169.027 40.0583 169.409 40.1509 169.828 40.1509C170.247 40.1509 170.629 40.0583 170.966 39.8676Z" fill="#162A2B"/>
<path d="M179.867 35.2794V40.6032H179.328V36.3474L177.236 39.9275H176.969L174.883 36.3692V40.6032H174.338V35.2794H174.807L177.116 39.23L179.404 35.2794H179.867Z" fill="#162A2B"/>
<path d="M186.523 35.2794V40.6032H185.968V35.7698H182.596V40.6032H182.046V35.2794H186.523Z" fill="#162A2B"/>
<path d="M192.782 35.2794V40.6032H192.226V35.7644H189.661L189.601 37.5462C189.574 38.2819 189.519 38.8703 189.421 39.3226C189.328 39.7749 189.181 40.1073 188.991 40.3253C188.8 40.5487 188.539 40.6577 188.223 40.6577C188.086 40.6577 187.945 40.6413 187.798 40.6032L187.847 40.1019C187.934 40.1237 188.016 40.1346 188.097 40.1346C188.321 40.1346 188.5 40.0474 188.642 39.873C188.784 39.6987 188.887 39.4207 188.958 39.0502C189.029 38.6796 189.078 38.1838 189.105 37.568L189.181 35.2849H192.793L192.782 35.2794Z" fill="#162A2B"/>
<path d="M198.725 40.1182V40.6032H194.955V35.2794H198.61V35.7698H195.522V37.6661H198.278V38.1402H195.522V40.1182H198.725Z" fill="#162A2B"/>
<path d="M202.113 38.162H200.898V40.6032H200.348V35.2794H200.898V37.6661H202.113L203.916 35.2794H204.52L202.548 37.8677L204.64 40.6032H203.992L202.113 38.162Z" fill="#162A2B"/>
<path d="M206.781 40.298C206.356 40.0637 206.024 39.7422 205.784 39.3281C205.539 38.9139 205.419 38.4508 205.419 37.9386C205.419 37.4264 205.539 36.9632 205.784 36.549C206.024 36.1349 206.361 35.8134 206.781 35.5791C207.206 35.3448 207.679 35.2249 208.208 35.2249C208.6 35.2249 208.97 35.2903 209.303 35.4211C209.64 35.5518 209.918 35.748 210.152 35.9987L209.793 36.3583C209.379 35.9387 208.851 35.7262 208.219 35.7262C207.799 35.7262 207.418 35.8244 207.069 36.0151C206.721 36.2058 206.454 36.4728 206.263 36.8051C206.067 37.143 205.969 37.5135 205.969 37.9277C205.969 38.3418 206.067 38.7178 206.263 39.0502C206.459 39.388 206.732 39.6442 207.069 39.8403C207.418 40.0311 207.794 40.1291 208.219 40.1291C208.856 40.1291 209.384 39.9166 209.793 39.4916L210.152 39.8512C209.918 40.1073 209.635 40.2981 209.297 40.4288C208.959 40.5651 208.595 40.6304 208.197 40.6304C207.669 40.6304 207.195 40.516 206.775 40.2762L206.781 40.298Z" fill="#162A2B"/>
<path d="M121.589 34.9579H121.088V42.0745H121.589V34.9579Z" fill="#162A2B"/>
<path d="M36.0217 35.7644H34.1534V40.5977H33.5924V35.7644H31.724V35.2739H36.0217V35.7644Z" fill="#162A2B"/>
<path d="M39.1429 38.756V40.5923H38.5873V38.756L36.4575 35.2739H37.0567L38.8814 38.2601L40.7062 35.2739H41.2727L39.1429 38.756ZM37.1438 38.5053H40.5591V38.9303H37.1438V38.5053Z" fill="#162A2B"/>
<path d="M46.0388 35.7644C46.4201 36.0913 46.6162 36.5381 46.6162 37.0994C46.6162 37.6607 46.4256 38.1129 46.0388 38.4344C45.6575 38.7559 45.1237 38.9139 44.4428 38.9139H43.0157V40.5923H42.4492V35.2685H44.4428C45.1237 35.2685 45.6521 35.4266 46.0388 35.7535M45.6357 38.0694C45.9135 37.8405 46.0551 37.5135 46.0551 37.0885C46.0551 36.6635 45.9135 36.3257 45.6357 36.0913C45.3579 35.8625 44.9548 35.7426 44.4265 35.7426H43.0103V38.4072H44.4265C44.9548 38.4072 45.3579 38.2928 45.6357 38.0584" fill="#162A2B"/>
<path d="M48.953 35.7644V37.9113H51.2516V38.3418H48.9639V40.5977H48.4083V38.3418H47.5912V37.9113H48.4083V35.2739H51.7909V35.7644H48.953Z" fill="#162A2B"/>
<path d="M56.8947 37.6007C57.227 37.8841 57.3904 38.2982 57.3904 38.8486C57.3904 39.3989 57.2161 39.8567 56.8621 40.1564C56.508 40.4506 56.0014 40.6032 55.3369 40.6032H53.2235V35.2794H53.779V37.1811H55.4513C56.0777 37.1811 56.557 37.3283 56.8893 37.6062M56.4372 39.8294C56.6932 39.6115 56.8185 39.2899 56.8185 38.8649C56.8185 38.0475 56.3174 37.6443 55.3097 37.6443H53.7682V40.1618H55.3097C55.7999 40.1618 56.1757 40.0528 56.4317 39.8349M58.3001 35.2849H58.8557V40.6086H58.3001V35.2849Z" fill="#162A2B"/>
<path d="M65.4901 35.2739V40.5977H64.9346V38.1456H61.6064V40.5977H61.0454V35.2739H61.6064V37.6498H64.9346V35.2739H65.4901Z" fill="#162A2B"/>
<path d="M71.8904 38.756V40.5977H71.3348V38.756L69.2105 35.2739H69.8097L71.629 38.2655L73.4592 35.2739H74.0202L71.8904 38.756Z" fill="#162A2B"/>
<path d="M75.2621 35.2739H75.8177V39.6877L79.2221 35.2739H79.7287V40.5977H79.1731V36.1948L75.7687 40.5977H75.2621V35.2739ZM76.5803 34.6255C76.357 34.4566 76.248 34.2114 76.2426 33.9062H76.662C76.662 34.1078 76.7437 34.2713 76.8908 34.3858C77.0379 34.5056 77.234 34.5601 77.4791 34.5601C77.7242 34.5601 77.9203 34.5056 78.0673 34.3858C78.2199 34.2713 78.2961 34.1133 78.3016 33.9062H78.721C78.721 34.2168 78.6011 34.4566 78.3778 34.6255C78.1545 34.7944 77.8549 34.8871 77.4845 34.8871C77.1141 34.8871 76.8036 34.7999 76.5857 34.6255" fill="#162A2B"/>
<path d="M86.0418 38.1565H84.8217V40.5977H84.2769V35.2739H84.8217V37.6661H86.0418L87.8448 35.2739H88.4494L86.4721 37.8623L88.5638 40.5977H87.9156L86.0418 38.1565Z" fill="#162A2B"/>
<path d="M93.575 40.1128V40.5977H89.8111V35.2739H93.4607V35.7644H90.3667V37.6607H93.1229V38.1347H90.3667V40.1128H93.575Z" fill="#162A2B"/>
<path d="M101.724 35.2739V40.5977H95.1982V35.2739H95.7539V40.1128H98.1887V35.2739H98.7443V40.1128H101.174V35.2739H101.724Z" fill="#162A2B"/>
<path d="M107.661 40.1128V40.5977H103.897V35.2739H107.547V35.7644H104.458V37.6607H107.214V38.1347H104.458V40.1128H107.661Z" fill="#162A2B"/>
<path d="M113.74 35.2739V40.5977H113.179V38.1456H109.851V40.5977H109.29V35.2739H109.851V37.6498H113.179V35.2739H113.74Z" fill="#162A2B"/>
<path d="M116.463 35.2739H115.908V40.5977H116.463V35.2739Z" fill="#162A2B"/>
</svg>
